<?xml version="1.0" encoding="UTF-8"?>
<svg version="1.1" xmlns="http://www.w3.org/2000/svg" width="2000" height="1946">
<path d="M0 0 C3.66042115 0.00450493 7.32084179 0.00284462 10.98126495 0.00209773 C17.25776823 0.00158457 23.53426076 0.00460077 29.81076133 0.01033556 C38.88444604 0.01862052 47.95812579 0.02108271 57.03181387 0.02232356 C71.76928029 0.02448812 86.50674104 0.03107603 101.2442044 0.04062617 C115.52219891 0.04986868 129.80019186 0.05691561 144.07818878 0.06113398 C144.96492644 0.0613967 145.85166411 0.06165943 146.76527261 0.06193011 C151.21575823 0.06323557 155.66624386 0.06449918 160.1167295 0.06574202 C196.77698229 0.07603341 233.43722864 0.09357888 270.09747589 0.11606562 C271.21636146 13.78208535 271.21636146 13.78208535 271.25569427 19.93947566 C271.26548309 21.12511607 271.27527191 22.31075648 271.28535736 23.53232539 C271.29111282 24.78481074 271.29686828 26.03729609 271.30279815 27.32773554 C271.31241136 28.69991543 271.32242324 30.07209257 271.33279693 31.44426692 C271.35959047 35.14039603 271.38076575 38.8365374 271.40079892 42.53270853 C271.42299488 46.45816419 271.45025441 50.38358517 271.47685516 54.30901301 C271.52100251 60.92851866 271.56175718 67.54803794 271.60016143 74.16757929 C271.64865436 82.52374335 271.70248505 90.87986341 271.75812995 99.23598254 C271.98426012 133.19599015 272.1858415 167.1551216 272.09747589 201.11606562 C272.79830134 201.10367633 273.49912679 201.09128705 274.22118938 201.07852232 C334.87728166 200.02247604 395.52685189 199.99057207 456.19064784 200.04403901 C465.43213235 200.05203421 474.67361582 200.05747027 483.91510284 200.06113398 C484.90631076 200.06152807 484.90631076 200.06152807 485.91754309 200.06193011 C489.23607247 200.06323614 492.55460187 200.0644973 495.87313128 200.06574202 C522.94791831 200.07602584 550.02269652 200.09346083 577.09747589 200.11606562 C577.09655409 199.11716335 577.0956323 198.11826108 577.09468257 197.08908904 C577.0725158 172.82089515 577.05606573 148.55270258 577.04566371 124.28450072 C577.04050011 112.54874591 577.03345618 100.81299778 577.02203643 89.07724726 C577.01209157 78.85234727 577.00562293 68.62745211 577.00338739 58.40254742 C577.00207995 52.98496044 576.99899198 47.56738728 576.99174583 42.14980471 C576.98498873 37.05688241 576.98285829 31.9639797 576.98436821 26.87105334 C576.98409174 24.99606815 576.98208479 23.12108235 576.97827041 21.24610102 C576.97333799 18.6978129 576.97447591 16.14960002 576.97722137 13.60131037 C576.97430853 12.84937924 576.97139569 12.09744812 576.96839458 11.3227312 C576.98335468 6.23018683 576.98335468 6.23018683 578.09747589 5.11606562 C580.74721528 4.95761183 583.37306357 4.86333955 586.02566803 4.81078303 C586.85571263 4.79083289 587.68575724 4.77088275 588.54095471 4.75032806 C591.31344469 4.6857668 594.08602705 4.62914338 596.85870636 4.57334101 C597.81945878 4.55259017 598.78021121 4.53183932 599.77007735 4.51045966 C620.81627667 4.05648965 641.86190897 3.90121725 662.91232431 3.81274259 C668.12353988 3.79005742 673.33473359 3.76303278 678.5459317 3.73668635 C687.33116835 3.69288626 696.11641469 3.65210374 704.90167511 3.61338007 C713.69986787 3.57457925 722.49804146 3.53305962 731.29620636 3.48838007 C790.89700911 3.18589154 850.49592061 3.05075206 910.09747589 3.11606562 C910.08716842 3.97874741 910.07686096 4.8414292 910.06624115 5.73025286 C909.51573715 51.95278336 909.0265378 98.17552286 908.62827957 144.39962828 C908.58713048 149.1659397 908.5455744 153.93224754 908.50400913 158.69855535 C908.32371346 179.37692453 908.14433521 200.05530019 907.97247589 220.7337414 C907.88119487 231.71426147 907.78682141 242.69475036 907.68895996 253.67521381 C907.63798456 259.40936335 907.5885429 265.14351617 907.54303253 270.87771189 C907.50077055 276.20252735 907.45445564 281.52729238 907.40509307 286.85204661 C907.38786423 288.78732749 907.37209484 290.72262206 907.35797393 292.65792811 C907.27783982 303.5168552 906.97819899 314.28952688 906.09747589 325.11606562 C905.18839225 325.31635119 905.18839225 325.31635119 904.26094329 325.52068293 C865.91338945 333.98143715 828.58540634 345.11561405 793.59356964 363.30747187 C791.33339451 364.47670213 789.05528904 365.61217094 786.75763214 366.70590937 C775.68770368 371.98899075 765.4251798 378.52483378 755.09747589 385.11606562 C754.18022735 385.69856074 754.18022735 385.69856074 753.24444854 386.29282343 C734.95279404 397.9650141 717.68120477 411.76541473 701.83185089 426.56528437 C699.2459505 428.97756002 696.61841487 431.3325545 693.97247589 433.67856562 C686.89563327 440.03977247 680.17291653 446.70659179 673.99200714 453.94419062 C672.12362063 456.0860935 670.19480538 458.16283275 668.25177276 460.23691523 C662.27478267 466.6389034 656.8606243 473.36739555 651.51544464 480.29965937 C650.08511617 482.13189831 648.62849229 483.93932385 647.15997589 485.74106562 C639.6939356 494.90443206 632.77182007 504.36196846 626.09747589 514.11606562 C625.66725128 514.74480586 625.23702667 515.37354609 624.79376495 516.02133906 C611.02731658 536.2357726 598.24678737 557.09629535 586.50567901 578.54672968 C585.52311966 580.3394576 584.5371741 582.13033197 583.54864776 583.91977656 C576.8501099 596.0472738 570.44078318 608.23444705 564.60919464 620.80356562 C562.91007735 624.45048657 561.1328755 628.05025969 559.31840789 631.64054072 C554.70373383 640.77491997 550.39342316 650.02148632 546.22247589 659.36606562 C545.86497253 660.16521388 545.50746917 660.96436213 545.13913238 661.787727 C529.87164731 695.9895567 515.76324335 730.86464464 503.09747589 766.11606562 C502.10747589 765.78606562 501.11747589 765.45606562 500.09747589 765.11606562 C499.18121612 762.51279414 499.18121612 762.51279414 498.40606964 758.99497187 C498.1870977 758.03715563 498.1870977 758.03715563 497.96370208 757.05998957 C497.6455949 755.66818078 497.33274975 754.27516151 497.02447784 752.8811413 C496.18668169 749.11137203 495.29819322 745.35376328 494.40606964 741.59653437 C494.22079711 740.8154632 494.03552459 740.03439204 493.84463775 739.22965205 C488.63239702 717.52232022 481.91244073 696.0176904 474.09747589 675.11606562 C473.49298614 673.49788935 473.49298614 673.49788935 472.87628448 671.84702265 C466.36753445 654.5727658 459.10193931 637.74730256 451.09747589 621.11606562 C450.61166046 620.10060664 450.12584503 619.08514765 449.62530792 618.03891718 C442.64623353 603.52113665 434.93378027 589.54767211 426.66046417 575.72934687 C425.2834272 573.42697204 423.91941081 571.11772839 422.56231964 568.80356562 C417.39302429 560.02289052 411.86482983 551.51491988 406.09747589 543.11606562 C405.6506546 542.46444453 405.20383331 541.81282343 404.74347198 541.14145625 C393.76695099 525.20517392 382.21614757 509.5962593 369.54278839 494.96372187 C367.14089504 492.16662882 364.83502031 489.30963172 362.53497589 486.42856562 C358.84129314 481.88249455 354.87328103 477.75577057 350.65216339 473.69809687 C348.62858808 471.6528625 346.7554065 469.59083143 344.88263214 467.41294062 C340.68996956 462.57564485 336.1955276 458.06750231 331.65997589 453.55356562 C330.4485794 452.33636836 330.4485794 452.33636836 329.21271026 451.09458125 C324.915465 446.80426144 320.54411169 442.67240088 315.94000518 438.71347773 C313.1299083 436.27721644 310.43421341 433.72299582 307.72247589 431.17856562 C303.22922662 427.00228902 298.65893006 423.01768839 293.82013214 419.24106562 C291.70742086 417.59212024 289.61479865 415.92603944 287.53106964 414.24106562 C286.57273223 413.46762812 286.57273223 413.46762812 285.59503448 412.67856562 C284.35846405 411.68007323 283.12300023 410.6802078 281.88897979 409.67856562 C265.31406466 396.3498166 247.47619495 383.82785778 229.09747589 373.11606562 C228.40798858 372.71113886 227.71850128 372.30621211 227.00812042 371.88901484 C222.18607128 369.05852462 217.34566081 366.26185897 212.49103057 363.48764765 C210.25277725 362.20505818 208.02259213 360.90935929 205.79278839 359.61215937 C178.44256537 343.87317735 148.40274252 330.92852874 117.59747589 323.80356562 C116.86746368 323.63171748 116.13745147 323.45986933 115.38531768 323.28281367 C114.68189239 323.128529 113.9784671 322.97424433 113.25372589 322.81528437 C112.33816925 322.61165278 112.33816925 322.61165278 111.40411651 322.40390742 C104.98356389 321.60269748 100.0011942 322.14534189 93.87091339 324.20590937 C93.20910064 324.42568446 92.5472879 324.64545954 91.86542022 324.87189448 C89.72978309 325.58609292 87.60109516 326.31873993 85.47247589 327.05356562 C83.98962462 327.55658757 82.50671395 328.05943441 81.02374542 328.56211054 C69.9582957 332.34352801 59.11571797 336.55855053 48.36505401 341.1609875 C45.6204352 342.31698973 42.84969318 343.39355259 40.07086456 344.46396601 C32.1407007 347.5298212 24.62838772 351.22240508 17.07843292 355.10581172 C15.18548755 356.07118119 13.283462 357.01420921 11.37481964 357.94809687 C-30.26171148 378.34815047 -69.3294444 403.35673949 -104.90252411 433.11606562 C-105.49871552 433.61316035 -106.09490693 434.11025507 -106.70916474 434.62241328 C-114.27825182 440.95432598 -121.59265052 447.51951144 -128.75433075 454.30918086 C-131.4868522 456.89497459 -134.22627268 459.41942017 -137.14080536 461.79965937 C-139.40209452 463.69632765 -141.22873128 465.47557783 -143.09002411 467.74106562 C-146.03558026 471.20258393 -149.16689183 474.4280806 -152.40252411 477.61606562 C-156.78639534 481.95356615 -160.91161681 486.41656866 -164.90252411 491.11606562 C-165.76103974 492.09704218 -166.61955536 493.07801875 -167.50408661 494.08872187 C-189.78640037 519.61168932 -208.94618877 547.52392593 -225.66521943 576.95883906 C-226.76222484 578.87145545 -227.88215626 580.76645967 -229.01971161 582.65512812 C-234.64791572 592.12588121 -239.08352034 602.0391126 -243.539487 612.10117304 C-244.80630854 614.90324705 -246.11795703 617.68096821 -247.44094574 620.45685542 C-251.32506421 628.63735393 -254.69615796 636.93868422 -257.84002411 645.42856562 C-258.09609437 646.11615962 -258.35216462 646.80375361 -258.61599457 647.51218379 C-272.57164228 685.07765102 -280.90434739 723.74643453 -287.90252411 763.11606562 C-288.89252411 763.44606562 -289.88252411 763.77606562 -290.90252411 764.11606562 C-291.00742157 763.13102046 -291.00742157 763.13102046 -291.11443818 762.12607539 C-292.88485627 745.69562769 -295.09623837 729.40131836 -297.90252411 713.11606562 C-298.04770478 712.24772089 -298.19288544 711.37937617 -298.34246552 710.48471797 C-312.61200031 625.77272768 -351.31499795 546.62381429 -409.01580536 483.22544062 C-410.58048145 481.47611333 -412.06623153 479.70095728 -413.52752411 477.86606562 C-415.91012665 475.10726269 -418.42236268 472.92759713 -421.21893036 470.61215937 C-422.90252411 469.11606562 -422.90252411 469.11606562 -425.34002411 466.17856562 C-427.90289812 463.11561863 -430.58035973 460.67284354 -433.60955536 458.09262812 C-436.19671631 455.86246894 -438.70326713 453.5557518 -441.21502411 451.24106562 C-446.61909049 446.32425113 -452.17770998 441.65321435 -457.90252411 437.11606562 C-458.5457663 436.60559687 -459.18900849 436.09512812 -459.85174286 435.56919062 C-478.48554839 420.82747386 -497.58281815 407.44881446 -517.90252411 395.11606562 C-518.68514618 394.64040156 -519.46776825 394.1647375 -520.27410614 393.67465937 C-539.35371609 382.13474634 -559.01755084 371.85914605 -579.19842255 362.38803828 C-581.46235857 361.32311352 -583.71955729 360.24624454 -585.97283661 359.15903437 C-597.42089933 353.6911118 -609.16435073 348.92006103 -620.90252411 344.11606562 C-622.24467988 343.56402461 -622.24467988 343.56402461 -623.61394989 343.00083125 C-635.90784416 337.95359406 -648.31254241 333.36856712 -660.90252411 329.11606562 C-661.99145966 328.74803828 -663.08039521 328.38001093 -664.2023288 328.00083125 C-667.74682064 326.80583678 -671.29292771 325.61580582 -674.84002411 324.42856562 C-675.94096406 324.05997431 -677.041904 323.691383 -678.17620575 323.31162226 C-684.8572335 321.08929195 -691.5602189 318.99677829 -698.32269013 317.03476679 C-700.90252411 316.11606562 -700.90252411 316.11606562 -702.90252411 314.11606562 C-703.15207177 311.88750225 -703.15207177 311.88750225 -703.15141308 309.04699576 C-703.15601188 307.96726113 -703.16061067 306.8875265 -703.16534883 305.77507263 C-703.16020526 304.57927741 -703.1550617 303.38348219 -703.14976227 302.15145075 C-703.1533839 300.25721931 -703.1533839 300.25721931 -703.15707868 298.32472056 C-703.16351554 294.80804293 -703.15740612 291.29147975 -703.1493144 287.7748096 C-703.14275512 283.98678367 -703.14768199 280.1987709 -703.1511966 276.41074336 C-703.15624673 268.98574855 -703.1505869 261.56079817 -703.1413463 254.13580888 C-703.1309809 245.49773959 -703.13103199 236.85968 -703.13151888 228.22160567 C-703.13201989 212.81475283 -703.12284702 197.40792074 -703.10833466 182.00107539 C-703.094244 167.03427467 -703.08716396 152.0674922 -703.08782685 137.10068476 C-703.0878668 136.17879398 -703.08790676 135.2569032 -703.08794793 134.30707633 C-703.08798828 133.3868148 -703.08802864 132.46655326 -703.08807021 131.51840502 C-703.08875925 114.50270251 -703.08287495 97.48700779 -703.073917 80.4713078 C-703.07089483 74.44294005 -703.06983675 68.41457373 -703.06938469 62.38620532 C-703.06870405 55.04548902 -703.06426018 47.70478584 -703.05505189 40.36407512 C-703.05042046 36.61516445 -703.04739332 32.86627062 -703.04864609 29.1173569 C-703.04993536 25.06278466 -703.04351995 21.00826272 -703.03623688 16.95369685 C-703.03778548 15.7556709 -703.03933409 14.55764496 -703.04092962 13.3233152 C-703.03770517 12.24618832 -703.03448072 11.16906144 -703.03115857 10.05929434 C-703.03045414 9.12208955 -703.02974972 8.18488476 -703.02902395 7.21927983 C-702.90252411 5.11606562 -702.90252411 5.11606562 -701.90252411 4.11606562 C-700.12768097 4.01740374 -698.34886949 3.98974405 -696.57128632 3.98908198 C-694.82907398 3.98484799 -694.82907398 3.98484799 -693.05166543 3.98052847 C-691.76140387 3.98255554 -690.47114232 3.9845826 -689.14178193 3.98667109 C-687.77254356 3.98533935 -686.40330556 3.98358428 -685.03406823 3.98143828 C-681.269101 3.97689647 -677.50416034 3.9787751 -673.73919261 3.98185384 C-670.53949647 3.98373225 -667.33980619 3.98208927 -664.14011025 3.98040396 C-654.61772362 3.97541875 -645.09535655 3.98009727 -635.57297242 3.98729289 C-630.17238621 3.99130106 -624.77180045 3.99314424 -619.37121308 3.99475825 C-573.15574467 4.0103919 -526.94198614 4.12900719 -480.72807038 4.5222317 C-477.05417286 4.55333998 -473.38026645 4.58315413 -469.70635712 4.61283076 C-463.95762997 4.66002509 -458.20897043 4.71229247 -452.46032822 4.76888049 C-450.40635088 4.78879208 -448.35236272 4.8076288 -446.2983638 4.82517397 C-431.81684919 4.95197545 -417.36853478 5.43676498 -402.90252411 6.11606562 C-402.08742654 9.69520455 -401.76895171 13.01458071 -401.74430573 16.68236506 C-401.7296225 18.34692492 -401.7296225 18.34692492 -401.71464264 20.04511225 C-401.70888718 21.25454493 -401.70313172 22.46397761 -401.69720185 23.71005976 C-401.68730225 24.99276255 -401.67740265 26.27546534 -401.66720307 27.59703791 C-401.64013787 31.12489423 -401.61909975 34.65276372 -401.59920108 38.1806668 C-401.57712234 41.9279902 -401.5497917 45.67527573 -401.52314484 49.42256892 C-401.47879883 55.76545136 -401.43810638 62.10834881 -401.39983857 68.4512707 C-401.35648556 75.63433634 -401.30884581 82.81736155 -401.2583347 90.00038022 C-401.20360198 97.78500631 -401.15172112 105.56964959 -401.10085142 113.35430181 C-401.08658835 115.51736996 -401.0719156 117.68043498 -401.05715477 119.84349978 C-400.87174148 147.60185166 -400.90252411 175.3559443 -400.90252411 203.11606562 C-294.31252411 203.11606562 -187.72252411 203.11606562 -77.90252411 203.11606562 C-77.90252411 136.45606562 -77.90252411 69.79606562 -77.90252411 1.11606562 C-23.706786 -0.03703519 -23.706786 -0.03703519 0 0 Z " fill="#2E3192" transform="translate(885.9025241136551,138.88393437862396)"/>
<path d="M0 0 C660 0 1320 0 2000 0 C2000 642.18 2000 1284.36 2000 1946 C1340 1946 680 1946 0 1946 C0 1303.82 0 661.64 0 0 Z M35 35 C35 654.08 35 1273.16 35 1911 C671.9 1911 1308.8 1911 1965 1911 C1965 1291.92 1965 672.84 1965 35 C1328.1 35 691.2 35 35 35 Z " fill="#2E3192" transform="translate(0,0)"/>
<path d="M0 0 C41.229375 -0.020625 82.45875 -0.04125 124.9375 -0.0625 C144.50148071 -0.07615601 144.50148071 -0.07615601 164.46069336 -0.09008789 C180.32531738 -0.09460449 180.32531738 -0.09460449 187.74024963 -0.09544373 C192.94521029 -0.0963795 198.15016063 -0.10006126 203.3551178 -0.10557556 C209.98057841 -0.11258447 216.6060271 -0.1144977 223.23149216 -0.11307228 C225.67164636 -0.11337064 228.11180105 -0.11537419 230.55195224 -0.11921513 C233.83091356 -0.12413938 237.10981621 -0.12300831 240.38877869 -0.12025452 C241.35832772 -0.12316718 242.32787676 -0.12607985 243.32680607 -0.12908077 C244.19992121 -0.1270899 245.07303635 -0.12509903 245.97260952 -0.12304783 C246.73167046 -0.12342755 247.4907314 -0.12380727 248.27279419 -0.1241985 C250 0 250 0 251 1 C251.11052011 4.17260236 251.15497886 7.32389979 251.15821838 10.49732971 C251.16315636 11.50682157 251.16809434 12.51631343 251.17318195 13.55639595 C251.18864003 16.96671338 251.19693994 20.37701187 251.20532227 23.78735352 C251.21489427 26.22096933 251.22490394 28.65458346 251.23532104 31.0881958 C251.25681822 36.34183257 251.27524818 41.59546661 251.29092598 46.849123 C251.31359893 54.44510951 251.34174527 62.04106789 251.37124526 69.63703059 C251.41895282 81.95974954 251.4622084 94.28247995 251.50268555 106.60522461 C251.5420244 118.57854099 251.58344673 130.55184716 251.62768555 142.52514648 C251.63040982 143.26267167 251.63313409 144.00019685 251.63594092 144.76007129 C251.64962013 148.45986638 251.66334046 152.15966132 251.67708123 155.85945618 C251.7910957 186.57294974 251.8978202 217.28646468 252 248 C253.4486882 246.39637516 254.8965229 244.79197925 256.34399414 243.18725586 C257.15034805 242.29389023 257.95670197 241.4005246 258.78749084 240.48008728 C261.08749762 237.90192052 263.28721161 235.266585 265.4375 232.5625 C269.45138284 227.59293077 273.68404653 222.89077094 278.03125 218.21484375 C280.02671788 216.16320879 280.02671788 216.16320879 281 214 C281.66 214 282.32 214 283 214 C283.268125 213.4225 283.53625 212.845 283.8125 212.25 C285.02929189 209.94449957 286.30333879 207.97943808 288 206 C288.66 206 289.32 206 290 206 C290.23332031 205.44699219 290.46664063 204.89398437 290.70703125 204.32421875 C292.33635535 201.39537331 294.3894459 199.25132312 296.6875 196.8125 C300.62128126 192.57699601 304.22240744 188.25241671 307.625 183.58203125 C308.305625 182.79892578 308.305625 182.79892578 309 182 C309.66 182 310.32 182 311 182 C311.23589844 181.44441406 311.47179688 180.88882812 311.71484375 180.31640625 C313.3127752 177.43624409 315.305005 175.33630924 317.5625 172.9375 C320.9953483 169.24636541 324.27938092 165.49589741 327.4375 161.5625 C331.57811967 156.43252873 335.9726732 151.595352 340.44921875 146.76171875 C344.67333272 142.18829061 348.73432248 137.48329319 352.77734375 132.75 C358.11448227 126.50314135 363.48228644 120.30012853 369 114.2109375 C373.00302802 109.78571512 376.90994182 105.27946632 380.78515625 100.7421875 C386.11891611 94.49724366 391.48474111 88.29741963 397 82.2109375 C401.00302802 77.78571512 404.90994182 73.27946632 408.78515625 68.7421875 C414.11772091 62.49864304 419.48258427 56.30041682 424.99609375 50.21484375 C429.39807333 45.3494979 433.67806402 40.38953803 437.89990234 35.3671875 C442.72642141 29.62808428 447.65267088 24.01871184 452.72265625 18.4921875 C454.73760145 16.28715312 456.72248439 14.06198335 458.6875 11.8125 C459.20788186 11.22820079 459.72826372 10.64390159 460.26441473 10.04189634 C462.01859199 8.04089237 462.01859199 8.04089237 463.47012097 5.91150713 C465.77055164 2.81642832 467.61732591 0.42444655 471.38603485 -0.73245335 C474.26543803 -1.0083234 477.04815397 -1.0284581 479.94017029 -0.96203613 C481.57847914 -0.97228923 481.57847914 -0.97228923 483.24988514 -0.98274946 C486.90521129 -0.9959144 490.55759166 -0.95195257 494.21264648 -0.90820312 C496.83433462 -0.90594628 499.45602782 -0.90721369 502.07771301 -0.91174316 C507.71952676 -0.91593219 513.36059872 -0.89089542 519.00222588 -0.84584045 C527.1588738 -0.78074262 535.3151641 -0.75998082 543.47204364 -0.74993652 C556.70674465 -0.73244002 569.94105055 -0.67923515 583.17553711 -0.60351562 C596.02935819 -0.53005064 608.88307183 -0.47343951 621.73706055 -0.43945312 C622.52976231 -0.43735134 623.32246407 -0.43524955 624.13918709 -0.43308407 C628.11605493 -0.42264355 632.09292352 -0.41253394 636.06979263 -0.40258884 C669.04681603 -0.31969413 702.02335509 -0.17882369 735 0 C734.24009887 4.61519701 732.87453424 6.72230006 729.75 10.25 C725.5158857 15.13557608 721.52374708 20.1555474 717.625 25.3125 C712.48739438 32.08685825 707.23441411 38.753917 701.90625 45.37890625 C695.15430353 53.77596267 688.53604138 62.27800631 681.9777832 70.8269043 C671.98060413 83.85152179 661.84442532 96.76856622 651.68652344 109.66796875 C650.35309555 111.36164918 649.02012615 113.05568867 647.6875 114.75 C647.24341797 115.31460937 646.79933594 115.87921875 646.34179688 116.4609375 C642.48039685 121.37643966 638.64591651 126.31266142 634.8125 131.25 C631.23594454 135.8559893 627.65736049 140.45766791 624 145 C616.13587338 154.77109295 608.49833408 164.72798289 600.875 174.6875 C596.80897079 179.98666922 592.64863268 185.20395186 588.46484375 190.41040039 C583.5503957 196.53687893 578.76615842 202.75786994 574 209 C568.24076822 216.54273582 562.40929578 224.01448011 556.46362305 231.41137695 C552.41313532 236.45970737 548.45525025 241.57168474 544.53125 246.71875 C542.7083499 249.09896987 540.84856022 251.44572821 538.96875 253.78125 C538.46351807 254.41216553 537.95828613 255.04308105 537.43774414 255.69311523 C536.46066539 256.91060782 535.47832543 258.12390267 534.48999023 259.33227539 C531.27154853 263.23906994 531.27154853 263.23906994 530 268 C530.33 268.99 530.66 269.98 531 271 C531.66 271 532.32 271 533 271 C534.41015625 272.3984375 534.41015625 272.3984375 536.0625 274.375 C538.7907947 277.58342938 541.55144446 280.74980367 544.375 283.875 C546.62635544 286.36892573 548.87737048 288.86289024 551.1171875 291.3671875 C555.56622364 296.33772238 560.07669776 301.24553582 564.625 306.125 C568.6016452 310.3925084 572.53189342 314.68480584 576.34765625 319.09765625 C581.77311743 325.34399099 587.38169065 331.4275425 593 337.5 C599.19217086 344.1927063 605.34049172 350.92172122 611.3125 357.8125 C614.98441983 362.03221206 618.79372813 366.12103111 622.59692383 370.22192383 C625.27371255 373.11329151 627.9229609 376.01871948 630.5 379 C634.05683038 383.11204293 637.75583684 387.0876962 641.45043945 391.07543945 C646.01610385 396.00664258 650.51752326 400.99306529 655 406 C656.45758719 407.62566931 657.91593328 409.25065847 659.375 410.875 C660.10332031 411.68710938 660.83164063 412.49921875 661.58203125 413.3359375 C663.37785214 415.31453176 665.18612984 417.27580683 667.01171875 419.2265625 C667.51848145 419.77070801 668.02524414 420.31485352 668.54736328 420.87548828 C669.54287419 421.94286333 670.54244092 423.00647269 671.54638672 424.06591797 C675 427.77672837 675 427.77672837 675 430 C675.66 430 676.32 430 677 430 C678.41015625 431.3984375 678.41015625 431.3984375 680.0625 433.375 C682.7907947 436.58342938 685.55144446 439.74980367 688.375 442.875 C691.37951464 446.20432704 694.37970059 449.53738066 697.375 452.875 C700.72890106 456.60285518 704.10785847 460.30696164 707.5 464 C711.62828126 468.49447668 715.72944931 473.01203848 719.8046875 477.5546875 C721.32719436 479.25057592 722.85350555 480.94305367 724.3828125 482.6328125 C736 495.47689769 736 495.47689769 736 498 C701.9776232 498.18311111 667.955369 498.32407706 633.93260887 498.40852264 C629.91592789 498.41852829 625.89924789 498.42888287 621.88256836 498.43945312 C620.68309548 498.44260085 620.68309548 498.44260085 619.45939083 498.44581217 C606.51151639 498.48062282 593.5639261 498.5436992 580.61622023 498.61722237 C567.33064836 498.69203489 554.04522531 498.73647021 540.75945145 498.75270796 C532.56122988 498.76368517 524.36381145 498.79835334 516.16583712 498.86333174 C510.54413739 498.90562037 504.92285283 498.91840094 499.30100559 498.90801102 C496.05705884 498.90288627 492.81481116 498.91511011 489.57104874 498.9536438 C486.0516094 498.99340634 482.53561578 498.983899 479.01609802 498.96203613 C477.99371377 498.98533886 476.97132952 499.0086416 475.91796392 499.03265047 C471.86153171 498.96445703 469.11132408 498.90137636 465.89059842 496.28909969 C464.1121134 494.2688352 462.5614712 492.18993265 461 490 C459.83747944 488.70839505 458.65855858 487.43118138 457.45703125 486.17578125 C456.56818237 485.23182495 456.56818237 485.23182495 455.66137695 484.26879883 C455.05124756 483.62322021 454.44111816 482.9776416 453.8125 482.3125 C452.48919194 480.9066183 451.16628028 479.50036339 449.84375 478.09375 C449.1940625 477.4028125 448.544375 476.711875 447.875 476 C443.70656477 471.55366909 439.58310079 467.06575949 435.45605469 462.58105469 C433.45847858 460.41198982 431.45702546 458.24651768 429.45581055 456.08081055 C425.12744892 451.39610205 420.80758139 446.70382316 416.5 442 C408.03416983 432.75987454 399.53657171 423.55405228 390.9375 414.4375 C382.15451224 405.12396838 373.49286865 395.71162839 364.97265625 386.15625 C363.61403499 384.6711828 362.20050208 383.23514237 360.74609375 381.84375 C359 380 359 380 359 378 C358.01 377.67 357.02 377.34 356 377 C354.43066406 375.42480469 354.43066406 375.42480469 352.765625 373.421875 C349.21631817 369.23942844 345.51783284 365.23536944 341.75 361.25 C336.34763096 355.51185663 330.98740086 349.74064591 325.671875 343.921875 C321.29994426 339.14087472 316.89965932 334.38611172 312.50292969 329.62792969 C311.03431788 328.03717213 309.5676212 326.44467301 308.1015625 324.8515625 C302.57713396 318.85143476 297.02172686 312.88204496 291.4375 306.9375 C283.03213843 297.98704088 274.73667458 288.94535727 266.53759766 279.80517578 C263.61812808 276.57786142 260.66937205 273.37878051 257.71484375 270.18359375 C257.16308472 269.58639526 256.61132568 268.98919678 256.04284668 268.37390137 C254.69550588 266.91568033 253.34779154 265.45780444 252 264 C251.99576806 265.19989783 251.99153612 266.39979567 251.98717594 267.63605404 C251.88660014 296.08985889 251.78091013 324.54364159 251.66888306 352.99740365 C251.65511272 356.49607168 251.64138574 359.99473989 251.62768555 363.4934082 C251.62495724 364.18995913 251.62222894 364.88651007 251.61941796 365.6041686 C251.57528776 376.89727226 251.53467318 388.19038598 251.49534739 399.48350727 C251.45494733 411.0627649 251.41071895 422.64200255 251.36312145 434.22123295 C251.33649439 440.7286893 251.31164076 447.23614184 251.29092598 453.74361992 C251.27139878 459.86088791 251.24726698 465.97811997 251.21950912 472.09535599 C251.21011786 474.34767189 251.20245012 476.5999957 251.19658089 478.85232353 C251.18835482 481.91297704 251.17408831 484.97354247 251.15821838 488.03416443 C251.15724028 488.93784254 251.15626217 489.84152065 251.15525442 490.77258295 C251.11412121 496.88587879 251.11412121 496.88587879 250 498 C248.66036899 498.09632909 247.31569927 498.12371971 245.97260952 498.12304783 C245.09949438 498.1250387 244.22637924 498.12702957 243.32680607 498.12908077 C242.35725703 498.12616811 241.387708 498.12325544 240.38877869 498.12025452 C239.36951294 498.12111053 238.35024719 498.12196655 237.3000946 498.12284851 C233.8457977 498.1245145 230.3915484 498.11896265 226.93725586 498.11352539 C224.43405693 498.11321932 221.93085792 498.1133521 219.42765903 498.11389065 C213.38227118 498.11409423 207.33690199 498.10979399 201.29151881 498.10338932 C194.30278458 498.09620602 187.31405558 498.09539549 180.32531738 498.09460449 C161.86270924 498.08934825 143.4001044 498.07538723 124.9375 498.0625 C83.708125 498.041875 42.47875 498.02125 0 498 C0 333.66 0 169.32 0 0 Z " fill="#2E3192" transform="translate(983,1248)"/>
<path d="M0 0 C39.0655452 7.9562141 74.32418871 27.58683719 104.23291016 53.59057617 C105.64895126 54.78749022 107.08790548 55.95735084 108.53662109 57.11450195 C115.58396771 62.74824186 122.00495028 68.80394455 128.33984375 75.22265625 C129.28995827 76.17423399 130.24047837 77.12540694 131.19140625 78.07617188 C136.36078821 83.27813398 141.34226073 88.57153302 146.08984375 94.16015625 C146.9669928 95.16966646 147.84456737 96.17880717 148.72265625 97.1875 C155.66972211 105.29966939 162.19724688 113.68611995 168.62207031 122.21630859 C169.89191788 123.89803286 171.17341706 125.57094725 172.45703125 127.2421875 C203.12610918 167.40407527 228.23807466 212.47866993 249.66894531 258.13574219 C250.60972837 260.13821993 251.55433964 262.13890398 252.50292969 264.13769531 C264.52499428 289.47727003 275.45616399 315.3886633 285.17285156 341.70068359 C286.14407077 344.30559901 287.14195971 346.89918563 288.14453125 349.4921875 C295.07262791 367.50804625 301.13369763 385.80491749 307.08984375 404.16015625 C307.49203125 405.39862305 307.89421875 406.63708984 308.30859375 407.91308594 C324.58911901 458.40815258 337.8826077 510.10285866 348.08984375 562.16015625 C348.33447357 563.40100983 348.33447357 563.40100983 348.58404541 564.66693115 C352.88926503 586.52961063 356.72337556 608.44551978 360.08984375 630.47265625 C360.24381622 631.47449951 360.3977887 632.47634277 360.556427 633.50854492 C360.99018538 636.34598535 361.41666685 639.1844016 361.83984375 642.0234375 C361.96753647 642.8620784 362.09522919 643.7007193 362.22679138 644.56477356 C362.39876793 645.7398774 362.39876793 645.7398774 362.57421875 646.9387207 C362.67444336 647.61288528 362.77466797 648.28704987 362.87792969 648.98164368 C363.1419598 651.69591805 363.08984375 654.43307039 363.08984375 657.16015625 C370.67984375 657.16015625 378.26984375 657.16015625 386.08984375 657.16015625 C386.28513672 654.31777344 386.28513672 654.31777344 386.484375 651.41796875 C386.98815629 644.9066176 387.79138746 638.4891863 388.77734375 632.03515625 C389.03789551 630.31703735 389.03789551 630.31703735 389.30371094 628.56420898 C389.88830059 624.76108352 390.48654012 620.96035689 391.08984375 617.16015625 C391.19532532 616.492724 391.30080688 615.82529175 391.40948486 615.13763428 C403.5303219 538.61788743 425.43047861 463.10618071 454.08984375 391.16015625 C454.53054199 390.04495605 454.97124023 388.92975586 455.42529297 387.78076172 C463.80226037 366.63704055 472.85929319 345.83015446 482.21429443 325.10266113 C483.4969537 322.25693691 484.7714479 319.40756517 486.046875 316.55859375 C490.8080501 305.95758837 495.76020253 295.48705247 501.08984375 285.16015625 C501.51990723 284.32468262 501.9499707 283.48920898 502.39306641 282.62841797 C505.92163921 275.78605505 509.49358447 268.96716463 513.08984375 262.16015625 C513.6017627 261.19013672 514.11368164 260.22011719 514.64111328 259.22070312 C530.15155891 229.93353392 547.21737487 201.30942332 565.890625 173.91992188 C567.15024324 172.07152443 568.40121411 170.21743283 569.65234375 168.36328125 C580.17572939 152.84070838 591.34724366 137.78098247 603.08984375 123.16015625 C603.82332031 122.24363281 604.55679688 121.32710937 605.3125 120.3828125 C618.65140469 103.89679781 632.93143017 88.29550703 647.83984375 73.22265625 C648.87782104 72.16510132 648.87782104 72.16510132 649.93676758 71.08618164 C650.58025146 70.44156982 651.22373535 69.79695801 651.88671875 69.1328125 C652.45745117 68.55797119 653.02818359 67.98312988 653.61621094 67.39086914 C655.08984375 66.16015625 655.08984375 66.16015625 657.08984375 66.16015625 C657.08984375 65.50015625 657.08984375 64.84015625 657.08984375 64.16015625 C658.70367323 62.70355648 660.38347591 61.31966674 662.08984375 59.97265625 C665.4480104 57.30944353 668.72252363 54.61423341 671.921875 51.76171875 C676.02706231 48.14909545 680.33160661 44.90225441 684.77734375 41.72265625 C685.96396606 40.8730835 685.96396606 40.8730835 687.17456055 40.00634766 C693.6397829 35.4155874 700.18126303 31.06019031 707.08984375 27.16015625 C707.83540527 26.73492676 708.5809668 26.30969727 709.34912109 25.87158203 C722.13520859 18.65367016 734.96038066 13.17048881 749.08984375 9.16015625 C749.77095215 8.96566895 750.45206055 8.77118164 751.15380859 8.57080078 C769.67308256 3.59485966 794.68042586 3.83011945 813.08984375 9.16015625 C814.29012207 9.50675293 814.29012207 9.50675293 815.51464844 9.86035156 C827.68515466 13.45320431 838.98338744 18.04360009 850.08984375 24.16015625 C850.68313477 24.48097168 851.27642578 24.80178711 851.88769531 25.13232422 C874.85519371 37.59045214 895.72339443 53.69953901 915.08984375 71.16015625 C915.60321289 71.61712891 916.11658203 72.07410156 916.64550781 72.54492188 C923.97188267 79.07300057 930.97898319 85.92959805 937.94403076 92.83911133 C938.91412198 93.80104165 939.88567546 94.76149959 940.85870361 95.72045898 C942.22872482 97.0726999 943.59109321 98.43268092 944.953125 99.79296875 C946.14869019 100.98237061 946.14869019 100.98237061 947.3684082 102.19580078 C949.08984375 104.16015625 949.08984375 104.16015625 949.08984375 106.16015625 C949.74984375 106.16015625 950.40984375 106.16015625 951.08984375 106.16015625 C952.359375 107.3828125 952.359375 107.3828125 953.90234375 109.22265625 C954.52238281 109.95355469 955.14242187 110.68445313 955.78125 111.4375 C956.54308594 112.33597656 957.30492187 113.23445312 958.08984375 114.16015625 C959.07619897 115.28814543 960.06462845 116.41432285 961.0546875 117.5390625 C967.37442459 124.73335486 973.46868709 132.04694213 979.33203125 139.6171875 C981.25018933 142.09336778 983.19431628 144.54587069 985.16015625 146.984375 C985.94024048 147.95213867 985.94024048 147.95213867 986.73608398 148.93945312 C987.71542772 150.15195917 988.69651264 151.36306252 989.67993164 152.57226562 C1004.54216789 171.00717991 1017.68474031 191.01440789 1030.08984375 211.16015625 C1031.01016298 212.64078271 1031.93073453 214.12125238 1032.8515625 215.6015625 C1039.88487946 226.95826027 1046.54178501 238.51820404 1053.08984375 250.16015625 C1053.5698584 251.00900391 1054.04987305 251.85785156 1054.54443359 252.73242188 C1060.45177952 263.19766888 1065.93135586 273.76473907 1070.984375 284.66796875 C1072.58642676 288.1179788 1074.26479556 291.51735606 1076.00024414 294.90185547 C1097.59998115 337.07355157 1113.49591194 382.76063364 1126.5402832 428.2444458 C1127.07290259 430.10110115 1127.60962655 431.95657749 1128.14648438 433.81201172 C1141.44831412 480.20945516 1149.46639826 528.07480426 1153.8984375 576.09399414 C1154.07777319 578.02985882 1154.26327392 579.96514959 1154.44921875 581.90039062 C1156.77865808 606.92799775 1156.28797246 632.05267711 1156.08984375 657.16015625 C1162.02984375 657.16015625 1167.96984375 657.16015625 1174.08984375 657.16015625 C1174.19296875 655.32453125 1174.29609375 653.48890625 1174.40234375 651.59765625 C1178.81763352 591.96180911 1193.80754267 532.5074985 1210.08984375 475.16015625 C1210.38793945 474.09684082 1210.68603516 473.03352539 1210.99316406 471.93798828 C1219.72751394 440.88626703 1230.36087644 410.09513403 1241.90234375 379.97265625 C1242.2365332 379.09939697 1242.57072266 378.2261377 1242.91503906 377.32641602 C1255.39309866 344.91988913 1268.90645179 312.61312477 1284.78125 281.7109375 C1286.09754713 279.1451404 1287.40530191 276.57506641 1288.712677 274.00471497 C1314.08640304 224.16605939 1342.9366257 175.78768756 1378.08984375 132.16015625 C1379.20939453 130.76603516 1379.20939453 130.76603516 1380.3515625 129.34375 C1388.89809415 118.80251618 1397.70556851 108.49383119 1406.9934082 98.59814453 C1409.36755625 96.06269468 1411.64281469 93.4950813 1413.8125 90.78515625 C1414.56402344 89.91890625 1415.31554688 89.05265625 1416.08984375 88.16015625 C1416.74984375 88.16015625 1417.40984375 88.16015625 1418.08984375 88.16015625 C1418.74984375 86.84015625 1419.40984375 85.52015625 1420.08984375 84.16015625 C1420.74984375 84.16015625 1421.40984375 84.16015625 1422.08984375 84.16015625 C1422.08984375 83.50015625 1422.08984375 82.84015625 1422.08984375 82.16015625 C1423.6640625 80.609375 1423.6640625 80.609375 1425.77734375 78.84765625 C1428.28786669 76.72370941 1430.69807796 74.60514281 1432.96484375 72.22265625 C1435.08984375 70.16015625 1435.08984375 70.16015625 1437.08984375 70.16015625 C1437.08984375 69.50015625 1437.08984375 68.84015625 1437.08984375 68.16015625 C1439.00390625 66.3828125 1439.00390625 66.3828125 1441.71484375 64.22265625 C1442.72546875 63.41570312 1443.73609375 62.60875 1444.77734375 61.77734375 C1445.32003906 61.34905273 1445.86273437 60.92076172 1446.421875 60.47949219 C1448.06894273 59.17668862 1449.70508249 57.86116653 1451.33984375 56.54296875 C1479.6566925 33.84056036 1510.7679778 15.43010722 1546.08984375 6.16015625 C1547.19585938 5.85207031 1548.301875 5.54398438 1549.44140625 5.2265625 C1555.62426814 3.62331419 1561.73408583 2.76007411 1568.08984375 2.28515625 C1568.80849609 2.22360352 1569.52714844 2.16205078 1570.26757812 2.09863281 C1574.80269654 1.84003275 1577.51997176 2.31213338 1581.08984375 5.16015625 C1583.75840083 9.16299187 1583.3669455 12.66107248 1583.34381104 17.30900574 C1583.34693403 18.26667766 1583.35005702 19.22434958 1583.35327464 20.21104187 C1583.36133247 23.46912442 1583.35489509 26.72702302 1583.34863281 29.98510742 C1583.3513059 32.35188082 1583.35482279 34.71865339 1583.35910702 37.08542442 C1583.36731152 43.00112943 1583.36578493 48.91678875 1583.36016147 54.83249256 C1583.35567587 59.85173713 1583.35570643 64.87096551 1583.3585453 69.89021111 C1583.35916121 70.98816717 1583.35916121 70.98816717 1583.35978956 72.10830417 C1583.36064472 73.60665213 1583.36150662 75.10500009 1583.36237507 76.60334804 C1583.37077326 92.19657694 1583.3632631 107.78977868 1583.35122436 123.38300341 C1583.34233406 134.96952885 1583.33691835 146.55605018 1583.33413648 158.14257866 C1583.31141924 250.43078027 1583.1139892 342.71853277 1581.87426758 710.05371094 C1581.86846269 711.63368085 1581.86265785 713.21365076 1581.85685305 714.79362068 C1581.81639815 725.8038507 1581.77589484 736.81408055 1581.73536682 747.8243103 C1581.73251468 748.59919299 1581.72966254 749.37407569 1581.72672397 750.17243967 C1581.70661209 755.63636661 1581.68649355 761.10029353 1581.66636848 766.56422043 C1581.66353029 767.33479623 1581.6606921 768.10537203 1581.6577679 768.89929861 C1581.62633794 777.43155008 1581.59485849 785.96380136 1581.5632751 794.49605227 C1581.2635778 875.46163119 1580.98999508 956.42715177 1580.78639245 1037.39304256 C1580.76973636 1044.0151645 1580.75283932 1050.63728581 1580.7359066 1057.25940704 C1580.64187577 1094.07753005 1580.54972225 1130.89565589 1580.47269061 1167.71381886 C1580.44162423 1182.55563458 1580.40751313 1197.39744038 1580.37011981 1212.23924154 C1580.34867467 1220.81170935 1580.33023117 1229.3841717 1580.31622585 1237.95665497 C1580.30574602 1244.21337431 1580.29031474 1250.47007146 1580.27282512 1256.72677493 C1580.26662271 1259.24535849 1580.26214255 1261.76394695 1580.25949204 1264.28253675 C1580.25572936 1267.66059145 1580.24598726 1271.03857446 1580.23460388 1274.41661072 C1580.23499031 1275.40431703 1580.23537674 1276.39202335 1580.23577487 1277.40966016 C1580.23153353 1278.29516276 1580.22729219 1279.18066536 1580.22292233 1280.09300137 C1580.22056148 1281.24429804 1580.22056148 1281.24429804 1580.21815294 1282.41885322 C1580.08984375 1284.16015625 1580.08984375 1284.16015625 1579.08984375 1285.16015625 C1577.05120421 1285.25698305 1575.00915301 1285.28220401 1572.96821594 1285.28062439 C1572.32279148 1285.28146166 1571.67736702 1285.28229894 1571.01238424 1285.28316158 C1568.84066496 1285.28468364 1566.66902575 1285.2789564 1564.49731445 1285.27319336 C1562.95788012 1285.27260789 1561.41844559 1285.27242118 1559.87901115 1285.2726078 C1555.69721152 1285.27167139 1551.51544714 1285.26413229 1547.33365798 1285.2551434 C1543.80400429 1285.24824198 1540.27435031 1285.24486353 1536.74469191 1285.24132842 C1507.51742696 1285.2106089 1478.29162832 1285.04138092 1449.06522369 1284.82362747 C1391.13808668 1284.39291008 1333.21077121 1284.12728627 1275.28225064 1283.98740172 C1270.76104208 1283.9764789 1266.239834 1283.96536554 1261.71862602 1283.95420265 C1260.96031277 1283.95233053 1260.20199951 1283.95045842 1259.42070707 1283.94852957 C1257.8784605 1283.94472096 1256.33621394 1283.94091151 1254.79396737 1283.93710121 C1252.45563642 1283.9313265 1250.11730545 1283.92556082 1247.77897447 1283.9197982 C1243.01256173 1283.90805157 1238.24614902 1283.89629059 1233.47973633 1283.88452148 C1232.28209144 1283.88156495 1232.28209144 1283.88156495 1231.0602517 1283.8785487 C1218.6117814 1283.8478045 1206.16331206 1283.81669605 1193.71484375 1283.78515625 C1192.87669992 1283.78303582 1192.03855609 1283.78091538 1191.17501396 1283.77873069 C1090.53865391 1283.52383187 989.90431569 1283.08731234 889.26953125 1282.46484375 C887.32792555 1282.45284164 887.32792555 1282.45284164 885.34709549 1282.44059706 C843.42282646 1282.18131423 801.49860394 1281.91476199 759.57438651 1281.64729825 C717.68633018 1281.3800699 675.79826488 1281.11440176 633.91015625 1280.85546875 C632.6161578 1280.84746482 631.32215935 1280.8394609 629.98894882 1280.83121443 C530.66044623 1280.21726658 431.33233581 1279.79555659 332.00229639 1279.54165173 C328.62538431 1279.53300737 325.2484724 1279.52429762 321.87156048 1279.51558898 C304.85492187 1279.47171736 287.83828132 1279.42861381 270.82164001 1279.38580322 C270.054388 1279.38387137 269.28713598 1279.38193952 268.49663389 1279.37994912 C260.20069388 1279.35906433 251.90475354 1279.33832729 243.60881233 1279.3179245 C193.58112632 1279.19466877 143.55400539 1279.00758992 93.52703929 1278.70646155 C87.6848426 1278.67130206 81.84263847 1278.63780926 76.00042725 1278.60516357 C68.60753057 1278.5636466 61.21467361 1278.5175395 53.82182884 1278.46764755 C51.28751503 1278.45089712 48.7531943 1278.43514215 46.21886635 1278.42068863 C30.36187769 1278.32803271 14.51566494 1278.02781789 -1.33659363 1277.64831543 C-3.34065376 1277.6009286 -5.34471561 1277.55361441 -7.3487792 1277.50637436 C-12.20259174 1277.39180421 -17.05638008 1277.27625659 -21.91015625 1277.16015625 C-22.04364478 1174.84676905 -22.17511683 1072.53337913 -22.82432229 513.29494365 C-22.83492997 503.40833969 -22.84555903 493.52173576 -22.85620117 483.63513184 C-22.85734865 482.56884963 -22.85849612 481.50256743 -22.85967837 480.40397364 C-22.8907708 451.52478533 -22.92303593 422.64559871 -22.95720229 393.76641387 C-22.96117377 390.40931188 -22.96513785 387.05220988 -22.96910218 383.69510787 C-22.97201492 381.22853686 -22.97492839 378.76196584 -22.97784197 376.29539483 C-23.04374674 320.49528122 -23.10428408 264.69518407 -23.13476562 208.8950367 C-23.13726713 204.3650627 -23.13979259 199.83508872 -23.14233398 195.30511475 C-23.14294508 194.20180342 -23.14355617 193.0984921 -23.14418578 191.96174709 C-23.15410882 174.45229097 -23.17405951 156.94286113 -23.19800588 139.43341915 C-23.22099989 122.45825574 -23.23360052 105.48311364 -23.23389459 88.50793421 C-23.23433913 78.88686026 -23.24248303 69.26587643 -23.26311618 59.64482402 C-23.27561905 53.44197257 -23.27749622 47.23918096 -23.27012342 41.03632129 C-23.26627738 37.55895842 -23.26709387 34.08177544 -23.28123951 30.60443521 C-23.29382473 26.90342716 -23.28817655 23.20289563 -23.27764893 19.50189209 C-23.28570517 18.43988921 -23.29376142 17.37788633 -23.3020618 16.28370154 C-23.26297697 10.48231868 -22.81056574 6.24146798 -19.91015625 1.16015625 C-13.96284535 -2.80471769 -6.75440448 -1.24276904 0 0 Z M-3.91015625 19.16015625 C-3.94045804 82.47766726 -3.96076535 145.79517954 -3.972013 209.11269683 C-3.97265431 212.71176811 -3.97331314 216.3108394 -3.97397232 219.90991068 C-4.02563366 365.64077271 -4.02563366 365.64077271 -3.6875 511.37109375 C-3.68259591 512.6638461 -3.67769183 513.95659844 -3.67263913 515.2885251 C-3.49151672 562.57945522 -3.18650666 609.86969312 -2.91015625 657.16015625 C111.59984375 657.16015625 226.10984375 657.16015625 344.08984375 657.16015625 C339.28023781 604.25449095 327.57133297 551.55597692 314.58538818 500.12738037 C314.12345621 498.29359178 313.66627727 496.45860771 313.20947266 494.62353516 C305.11413757 462.12151301 295.73354186 429.91676374 285.08984375 398.16015625 C284.71214844 397.020625 284.33445312 395.88109375 283.9453125 394.70703125 C273.65901886 363.74210606 262.02199172 333.11683557 249.08984375 303.16015625 C248.67009277 302.18079102 248.2503418 301.20142578 247.81787109 300.19238281 C246.51728228 297.15880668 245.21143475 294.12757249 243.90234375 291.09765625 C243.52223145 290.21762939 243.14211914 289.33760254 242.75048828 288.4309082 C236.88954725 274.98234327 230.51869764 261.7821896 223.96484375 248.66015625 C223.41275742 247.55397446 223.41275742 247.55397446 222.84951782 246.42544556 C216.80443918 234.34000832 210.43143389 222.4948912 203.62939453 210.81591797 C202.023765 208.04616883 200.44268933 205.26354958 198.8671875 202.4765625 C193.82044069 193.55574088 188.70485399 184.73864411 183.08984375 176.16015625 C182.6 175.36996094 182.11015625 174.57976562 181.60546875 173.765625 C168.64420706 152.88002758 153.8160179 132.72413336 137.6953125 114.16796875 C135.91889704 112.11723426 134.17409856 110.06032642 132.453125 107.96484375 C121.14327012 94.29684906 108.6051004 80.95592606 94.55859375 70.07421875 C91.81416201 67.94641566 89.21563747 65.68247774 86.58984375 63.41015625 C66.95920707 47.07665493 44.52354809 34.56160469 20.71484375 25.47265625 C19.98467041 25.18688721 19.25449707 24.90111816 18.50219727 24.60668945 C13.5102984 22.75661335 8.48821872 21.56577233 3.26708984 20.55932617 C2.57495895 20.42351891 1.88282806 20.28771164 1.16972351 20.147789 C-0.52306936 19.81601475 -2.21654522 19.48772845 -3.91015625 19.16015625 Z M1474.08984375 63.16015625 C1473.5292627 63.57652344 1472.96868164 63.99289062 1472.39111328 64.421875 C1465.86546917 69.28477975 1459.58280053 74.32914594 1453.6015625 79.859375 C1452.25025499 81.09719789 1450.8918027 82.32830774 1449.49487305 83.5144043 C1443.11839399 88.94353998 1437.24235283 94.85639425 1431.33520508 100.78442383 C1429.5312229 102.59376558 1427.7219571 104.39769944 1425.91210938 106.20117188 C1420.09224729 112.01737865 1414.38534911 117.85510595 1409.08984375 124.16015625 C1408.21328394 125.17017813 1407.335731 126.17933927 1406.45703125 127.1875 C1399.52215362 135.28543705 1393.02613952 143.66778184 1386.60058594 152.17333984 C1385.25945531 153.93709567 1383.9037426 155.687209 1382.53515625 157.4296875 C1365.49040679 179.19667083 1350.8916266 202.54731262 1336.796875 226.28955078 C1335.33993358 228.73959615 1333.87398518 231.18377327 1332.40234375 233.625 C1304.89432668 279.46241817 1282.62896836 328.47133191 1263.08984375 378.16015625 C1262.62271973 379.34528809 1262.1555957 380.53041992 1261.67431641 381.75146484 C1240.62956409 435.44132036 1223.88393868 490.940205 1211.08984375 547.16015625 C1210.79803223 548.43246094 1210.5062207 549.70476563 1210.20556641 551.015625 C1197.77525342 603.60784198 1197.77525342 603.60784198 1193.08984375 657.16015625 C1314.85984375 657.16015625 1436.62984375 657.16015625 1562.08984375 657.16015625 C1562.91764545 640.37017635 1562.91764545 640.37017635 1563.24806213 623.5891571 C1563.25300029 622.604852 1563.25793844 621.6205469 1563.26302624 620.60641438 C1563.27806226 617.38824562 1563.28668006 614.17009643 1563.29516602 610.9519043 C1563.3047908 608.58616357 1563.31480041 606.22042438 1563.32515621 603.85468674 C1563.34932215 598.07901553 1563.36915794 592.3033415 1563.38690188 586.52764723 C1563.4018158 581.71116875 1563.41876296 576.89470086 1563.43696594 572.07823372 C1563.43961194 571.37743146 1563.44225794 570.67662921 1563.44498412 569.95459052 C1563.45039001 568.52407625 1563.45579804 567.09356199 1563.46120818 565.66304774 C1563.51564416 551.19009449 1563.56284041 536.71712273 1563.6074959 522.24413639 C1563.63960091 511.84485028 1563.67337819 501.44557112 1563.70840166 491.04629444 C1564.00725227 402.17657263 1564.14855107 313.30718934 1564.08984375 22.16015625 C1532.82602018 22.16015625 1498.14538809 45.16992904 1474.08984375 63.16015625 Z M676.08984375 73.16015625 C675.43891015 73.60514074 674.78797654 74.05012523 674.11731768 74.5085941 C670.93577919 76.86515687 668.51111779 78.74904414 667.35275173 82.62914169 C667.0812417 85.63088344 667.0616406 88.54239897 667.12780762 91.55589294 C667.12097222 92.69710147 667.11413682 93.83831 667.10709429 95.01410061 C667.09392451 98.83521358 667.13790054 102.65351158 667.18164062 106.47436523 C667.18835423 109.21429723 667.18298248 111.95417443 667.17810059 114.69410706 C667.17391084 120.59127842 667.19895538 126.4877403 667.2440033 132.3847332 C667.30909111 140.91060842 667.32986194 149.43614147 667.33990723 157.9622382 C667.35740527 171.79590198 667.41061441 185.62918784 667.48632812 199.46264648 C667.55978907 212.89849968 667.61640221 226.33425013 667.65039062 239.77026367 C667.65249241 240.59880938 667.6545942 241.42735508 667.65675968 242.28100824 C667.66720017 246.43768496 667.67730979 250.59436241 667.68725491 254.75104034 C667.77015457 289.22108057 667.91761595 323.69041783 668.08984375 358.16015625 C701.74984375 358.16015625 735.40984375 358.16015625 770.08984375 358.16015625 C770.08984375 248.27015625 770.08984375 138.38015625 770.08984375 25.16015625 C735.34305522 25.16015625 701.16041068 51.85763584 676.08984375 73.16015625 Z M802.08984375 26.16015625 C802.08984375 135.72015625 802.08984375 245.28015625 802.08984375 358.16015625 C835.41984375 358.16015625 868.74984375 358.16015625 903.08984375 358.16015625 C903.33244823 323.67910393 903.53551146 289.19888131 903.65156237 254.71723203 C903.66531978 250.64433157 903.67955736 246.57143291 903.6940918 242.49853516 C903.69697721 241.68771104 903.69986263 240.87688693 903.70283548 240.04149239 C903.75067114 226.92091722 903.83738455 213.80087341 903.93852451 200.68061323 C904.04147365 187.21311032 904.10250737 173.74588525 904.12481719 160.278005 C904.13989439 151.97046886 904.1874691 143.66443465 904.27692489 135.357361 C904.33517385 129.65707029 904.35262265 123.95755337 904.3383589 118.25698681 C904.33132697 114.96959542 904.34797768 111.68536744 904.40110397 108.39832306 C905.30753395 94.74341589 905.30753395 94.74341589 900.68390846 82.43972397 C898.12582878 79.82924064 895.25651251 77.98255807 892.08984375 76.16015625 C890.86843597 75.18390304 889.66203362 74.1881776 888.48046875 73.1640625 C885.0283886 70.48054248 881.57053773 67.80644361 878.08984375 65.16015625 C877.48092285 64.69432129 876.87200195 64.22848633 876.24462891 63.74853516 C867.22672496 56.8776381 857.98950063 50.68768946 848.08984375 45.16015625 C847.28740234 44.7110791 846.48496094 44.26200195 845.65820312 43.79931641 C831.50570207 35.95553606 817.80868981 30.08986777 802.08984375 26.16015625 Z M647.08984375 101.16015625 C645.18074593 103.13550037 643.31443989 105.1301794 641.46484375 107.16015625 C640.63907837 108.06254028 640.63907837 108.06254028 639.79663086 108.9831543 C638.22403086 110.70552572 636.65609264 112.43201016 635.08984375 114.16015625 C634.46464844 114.84722656 633.83945312 115.53429687 633.1953125 116.2421875 C623.02896375 127.64394065 613.70153988 139.79045922 604.63769531 152.07519531 C603.07122871 154.18523077 601.48493834 156.27905977 599.89453125 158.37109375 C556.805899 215.42398612 522.33457171 280.43908677 493.52734375 345.72265625 C492.83862183 347.28330811 492.83862183 347.28330811 492.13598633 348.87548828 C489.94904356 353.36189666 489.94904356 353.36189666 489.08984375 358.16015625 C541.55984375 358.16015625 594.02984375 358.16015625 648.08984375 358.16015625 C648.08984375 273.35015625 648.08984375 188.54015625 648.08984375 101.16015625 C647.75984375 101.16015625 647.42984375 101.16015625 647.08984375 101.16015625 Z M919.08984375 102.16015625 C918.94255632 146.51270965 919.13565533 190.8609829 919.49556351 235.21219635 C919.52675416 239.08691366 919.55694343 242.96163759 919.58688354 246.83636475 C919.6359154 253.13982601 919.68822858 259.44325341 919.74272156 265.74666977 C919.76224267 268.03522981 919.78106116 270.32379604 919.79893494 272.61236954 C920.02467121 301.13176532 920.60650451 329.64314117 921.08984375 358.16015625 C974.21984375 358.16015625 1027.34984375 358.16015625 1082.08984375 358.16015625 C1079.63575848 349.97987202 1076.86654851 342.49574509 1073.46484375 334.72265625 C1073.18761475 334.08542633 1072.91038574 333.44819641 1072.62475586 332.79165649 C1065.30293402 315.99956545 1057.28100719 299.54248312 1049.08984375 283.16015625 C1048.78628967 282.5530481 1048.4827356 281.94593994 1048.16998291 281.32043457 C1025.98593477 237.05098202 999.04030683 194.82382621 968.08984375 156.16015625 C967.41695312 155.30421875 966.7440625 154.44828125 966.05078125 153.56640625 C961.53488559 147.84255496 956.82325021 142.30322338 952.03735352 136.8046875 C948.1944516 132.36937195 948.1944516 132.36937195 947.08984375 130.16015625 C946.42984375 130.16015625 945.76984375 130.16015625 945.08984375 130.16015625 C944.82051025 129.56936279 944.55117676 128.97856934 944.27368164 128.36987305 C943.0909181 126.16216161 941.86083128 124.62079825 940.1484375 122.8046875 C939.56860107 122.18601807 938.98876465 121.56734863 938.39135742 120.92993164 C937.77623291 120.28403076 937.1611084 119.63812988 936.52734375 118.97265625 C935.90126221 118.30935303 935.27518066 117.6460498 934.63012695 116.96264648 C927.53282268 109.38710311 927.53282268 109.38710311 920.08984375 102.16015625 C919.75984375 102.16015625 919.42984375 102.16015625 919.08984375 102.16015625 Z M479.08984375 381.16015625 C475.07546504 389.925152 475.07546504 389.925152 471.4765625 398.8046875 C470.81829468 400.54298828 470.81829468 400.54298828 470.14672852 402.31640625 C469.69483154 403.52296875 469.24293457 404.72953125 468.77734375 405.97265625 C468.29036414 407.26825959 467.80330225 408.56383201 467.31616211 409.859375 C466.3461744 412.44242953 465.37933943 415.02663356 464.41503906 417.61181641 C463.29005334 420.62407552 462.15606678 423.63271518 461.01953125 426.640625 C436.15813641 493.06636008 418.41298433 562.56236041 407.83984375 632.66015625 C407.67645508 633.73990723 407.51306641 634.8196582 407.34472656 635.93212891 C407.19358398 636.96644043 407.04244141 638.00075195 406.88671875 639.06640625 C406.75620117 639.95650391 406.62568359 640.84660156 406.49121094 641.76367188 C405.8864375 646.88143835 405.51780834 652.02458122 405.08984375 657.16015625 C646.64984375 657.16015625 888.20984375 657.16015625 1137.08984375 657.16015625 C1137.08984375 609.31082862 1135.31496241 563.12869389 1127.08984375 516.16015625 C1126.87021973 514.89526367 1126.6505957 513.63037109 1126.42431641 512.32714844 C1119.9374328 475.38649554 1110.9102045 438.75743083 1099.08984375 403.16015625 C1098.39756861 401.0341369 1097.70615211 398.90783775 1097.015625 396.78125 C1094.98013589 388.39991073 1094.98013589 388.39991073 1091.08984375 381.16015625 C1088.91291764 381.06318708 1086.73277982 381.03828879 1084.55369568 381.03990173 C1083.51723352 381.0386201 1083.51723352 381.0386201 1082.45983273 381.03731257 C1080.12741155 381.03565578 1077.79506112 381.04118235 1075.46264648 381.04663086 C1073.79749554 381.04691271 1072.13234447 381.04675503 1070.4671936 381.04618835 C1065.93226269 381.04590031 1061.39735799 381.05179809 1056.8624332 381.05876231 C1052.12851006 381.06499477 1047.39458639 381.06559956 1042.66065979 381.06678772 C1033.68982275 381.06990136 1024.71899783 381.07811517 1015.74816614 381.08813721 C1005.53793983 381.09929735 995.32771295 381.10480855 985.11748207 381.10983264 C964.10826252 381.12029776 943.0990539 381.13789782 922.08984375 381.16015625 C922.07805326 391.13295948 922.06927345 401.10576095 922.06393766 411.07856983 C922.0613717 415.71357122 922.05791594 420.34856771 922.05212402 424.98356628 C922.01354805 456.72086782 922.38445188 488.43011821 923.08984375 520.16015625 C916.48984375 520.16015625 909.88984375 520.16015625 903.08984375 520.16015625 C903.08984375 474.29015625 903.08984375 428.42015625 903.08984375 381.16015625 C869.75984375 381.16015625 836.42984375 381.16015625 802.08984375 381.16015625 C802.08984375 427.03015625 802.08984375 472.90015625 802.08984375 520.16015625 C791.52984375 520.16015625 780.96984375 520.16015625 770.08984375 520.16015625 C770.08984375 474.29015625 770.08984375 428.42015625 770.08984375 381.16015625 C736.42984375 381.16015625 702.76984375 381.16015625 668.08984375 381.16015625 C667.75984375 426.70015625 667.42984375 472.24015625 667.08984375 519.16015625 C660.81984375 519.49015625 654.54984375 519.82015625 648.08984375 520.16015625 C648.08984375 474.29015625 648.08984375 428.42015625 648.08984375 381.16015625 C592.31984375 381.16015625 536.54984375 381.16015625 479.08984375 381.16015625 Z M-2.91015625 703.16015625 C-2.91015625 886.31015625 -2.91015625 1069.46015625 -2.91015625 1258.16015625 C16.30783343 1258.98483972 16.30783343 1258.98483972 35.52001953 1259.34960938 C36.67862267 1259.35792534 37.83722582 1259.3662413 39.03093815 1259.37480927 C42.86566354 1259.4011634 46.70039289 1259.42139572 50.53515625 1259.44140625 C52.66533136 1259.45441664 54.79550168 1259.46807097 56.92567223 1259.48180485 C64.80558012 1259.53259805 72.68551306 1259.57711537 80.56547278 1259.61901188 C86.60030951 1259.65116291 92.63513238 1259.68531745 98.66995239 1259.72045898 C175.1218482 1260.16374815 251.57464647 1260.40407901 328.02734375 1260.66015625 C329.60195684 1260.66543146 331.17656994 1260.67070671 332.75118303 1260.675982 C338.28879909 1260.69453275 343.82641516 1260.71307926 349.36403123 1260.73162364 C499.73352604 1261.23520016 499.73352604 1261.23520016 571.44762945 1261.5833168 C574.41054735 1261.59769606 577.37346557 1261.61200543 580.33638382 1261.62631226 C637.19727888 1261.90159112 694.05772879 1262.24208496 750.91814661 1262.60076714 C759.44778025 1262.65456628 767.97741494 1262.70819795 776.50704956 1262.76184082 C777.36156685 1262.76721549 778.21608413 1262.77259016 779.09649588 1262.7781277 C796.71118359 1262.88891666 814.32587245 1262.99952042 831.94056291 1263.10987075 C836.39548617 1263.13778083 840.85040932 1263.16570975 845.30533218 1263.19368267 C930.16989813 1263.72653109 1015.03421779 1264.21994581 1195.33313438 1264.826919 C1198.98654287 1264.83824626 1202.63995131 1264.84958511 1206.29335976 1264.86092472 C1207.01276853 1264.86315746 1207.73217731 1264.8653902 1208.47338635 1264.8676906 C1214.23773634 1264.88558388 1220.00208622 1264.90351342 1225.76643603 1264.92146286 C1229.32113138 1264.93252809 1232.87582682 1264.94356555 1236.43052244 1264.95454335 C1277.46428504 1265.08129875 1318.49777421 1265.23946841 1359.53125 1265.44140625 C1360.73826167 1265.44733819 1361.94527335 1265.45327013 1363.18886113 1265.45938182 C1385.69189374 1265.57019891 1408.19490144 1265.68565799 1430.69788021 1265.80691898 C1438.61114177 1265.84956066 1446.52440746 1265.89137251 1454.43767601 1265.93269646 C1458.87626826 1265.95597106 1463.31485551 1265.979796 1467.75343513 1266.00537109 C1498.86557853 1266.1845862 1529.9772998 1266.18007023 1561.08984375 1266.16015625 C1561.22161556 1226.78645123 1561.34914254 1187.4127342 1561.47202602 1148.03900042 C1561.48702074 1143.23547285 1561.50204581 1138.43194538 1561.51708984 1133.62841797 C1561.52008046 1132.6733571 1561.52307107 1131.71829623 1561.52615231 1130.73429412 C1561.56355678 1118.80703113 1561.60203305 1106.87977237 1561.64223099 1094.95251846 C1562.08133289 964.35387397 1562.08984375 833.76071727 1562.08984375 703.16015625 C1045.63984375 703.16015625 529.18984375 703.16015625 -2.91015625 703.16015625 Z " fill="#2E3192" transform="translate(205.91015625,507.83984375)"/>
<path d="M0 0 C5.33189119 0.29067572 10.66556566 0.52346514 16.00048828 0.75048828 C35.03178504 1.57795502 53.90172309 2.94965227 72.84765625 4.94287109 C76.88162015 5.3441034 80.91804167 5.65081535 84.9609375 5.9453125 C102.80182414 7.25964372 120.50615469 9.79880037 138.21533203 12.27783203 C139.4197998 12.44541016 140.62426758 12.61298828 141.86523438 12.78564453 C192.79103221 19.96836576 243.29177664 31.40158927 291.21533203 50.27783203 C292.16134277 50.65020996 293.10735352 51.02258789 294.08203125 51.40625 C323.54963662 63.16264626 351.11843094 79.44284772 374.21533203 101.27783203 C375.03517578 102.04482422 375.85501953 102.81181641 376.69970703 103.60205078 C407.2106061 133.02327488 416.54055682 170.87380199 417.50439453 212.03564453 C417.89923652 234.03297841 416.88094668 255.45734554 409.21533203 276.27783203 C408.77253906 277.6178125 408.77253906 277.6178125 408.32080078 278.98486328 C403.63729464 292.22271855 394.35058932 303.75922846 384.21533203 313.27783203 C383.55533203 313.27783203 382.89533203 313.27783203 382.21533203 313.27783203 C382.21533203 313.93783203 382.21533203 314.59783203 382.21533203 315.27783203 C380.1661452 316.93597581 378.12463001 318.46204455 375.96533203 319.96533203 C374.99926025 320.64015625 374.99926025 320.64015625 374.01367188 321.32861328 C372.08966082 322.65846541 370.15540806 323.97155543 368.21533203 325.27783203 C367.30525391 325.89271484 366.39517578 326.50759766 365.45751953 327.14111328 C313.08085516 359.89607204 239.00991527 365.87511733 179.21533203 372.27783203 C178.51259155 372.35324219 177.80985107 372.42865234 177.08581543 372.50634766 C156.4133792 374.72088984 135.73165612 376.72760231 115.01246643 378.45063782 C114.3188652 378.50833847 113.62526398 378.56603912 112.91064453 378.62548828 C112.23351913 378.68177902 111.55639374 378.73806976 110.85874939 378.79606628 C105.38815722 379.25466693 99.9270809 379.78808793 94.46533203 380.34033203 C84.60964127 381.32338818 74.73052467 381.91841921 64.84619141 382.52807617 C57.04210405 383.01237762 49.25363288 383.58499735 41.46533203 384.27783203 C30.84563875 385.21408394 20.21691312 385.82345319 9.57305908 386.40081787 C-1.35862733 386.99455541 -12.26973733 387.70820147 -23.17675781 388.66845703 C-30.46253079 389.28085212 -37.39753974 389.27783203 -44.78466797 389.27783203 C-44.78466797 427.22783203 -44.78466797 465.17783203 -44.78466797 504.27783203 C-127.28466797 504.27783203 -209.78466797 504.27783203 -294.78466797 504.27783203 C-294.86609325 384.09411981 -294.86609325 384.09411981 -294.85498047 353.19970703 C-294.85436229 351.35137032 -294.85436229 351.35137032 -294.85373163 349.46569347 C-294.83846393 307.69116059 -294.72123656 265.91757985 -294.53614333 224.1434747 C-294.52687069 222.04689787 -294.51766449 219.95032077 -294.50847983 217.85374355 C-294.38931747 190.66770379 -294.26289208 163.48170879 -294.11526418 136.2958076 C-294.06002846 126.0969335 -294.0085951 115.89804442 -293.95971274 105.69913793 C-293.93123569 99.81370541 -293.90061316 93.92830402 -293.86411667 88.04291534 C-293.6957475 60.76573957 -293.869693 33.5417417 -294.78466797 6.27783203 C-262.79444723 3.88504429 -230.84235879 1.73459438 -198.77981567 0.61053467 C-192.78335956 0.39789742 -186.79021325 0.14621311 -180.79679871 -0.13937378 C-120.70433381 -2.99359725 -60.07820415 -3.29578133 0 0 Z M-28.97216797 35.71533203 C-30.22384766 35.79654297 -31.47552734 35.87775391 -32.76513672 35.96142578 C-35.70272699 36.09037621 -35.70272699 36.09037621 -37.78466797 37.27783203 C-37.78466797 130.33783203 -37.78466797 223.39783203 -37.78466797 319.27783203 C-31.96664713 319.92427879 -26.46889271 320.43545681 -20.66357422 320.44580078 C-19.92574203 320.45008087 -19.18790985 320.45436096 -18.42771912 320.45877075 C-16.06747209 320.46867139 -13.70743162 320.46884111 -11.34716797 320.46533203 C-10.53965088 320.46439545 -9.73213379 320.46345886 -8.90014648 320.4624939 C30.44188556 320.3633082 69.78598704 310.33170962 100.14892578 284.05517578 C102.21533203 282.27783203 102.21533203 282.27783203 105.21533203 280.27783203 C105.21533203 279.61783203 105.21533203 278.95783203 105.21533203 278.27783203 C105.81087891 278.00583984 106.40642578 277.73384766 107.02001953 277.45361328 C128.40275517 266.00129402 140.93469751 232.35205165 147.50341797 210.72363281 C157.13794196 177.6239547 152.65514864 140.94217679 136.84033203 110.46533203 C125.64127935 90.58579091 110.20937632 74.71975893 91.21533203 62.27783203 C90.41740234 61.74416016 89.61947266 61.21048828 88.79736328 60.66064453 C54.66305608 38.92278969 10.64740535 33.00166263 -28.97216797 35.71533203 Z " fill="#2E3192" transform="translate(550.78466796875,1241.72216796875)"/>
</svg>
